# xmcd CD database file generated by Grip 3.3.1
# 
# Track frame offsets:
#       150
#       23865
#       46229
#       61478
#       76667
#       102326
#       121163
#       138250
#       154266
# 
# Disc length: 2209 seconds
# 
# Revision: 1
# Processed by: cddbd v1.5.2PL0 Copyright (c) Steve Scherf et al.
# Submitted via: Grip 3.3.1
# 
DISCID=6a089f09
DTITLE=Olaf Caarls, Benjamin James Caldwell, Dominique Fricot, Pieter va
DTITLE=n Vliet, John Paul Smith - Folk Road Show
DYEAR=2016
DGENRE=Folk
TTITLE0=What's a man
TTITLE1=Harbour
TTITLE2=Jonathan
TTITLE3=Fernando Pessoa
TTITLE4=Helena
TTITLE5=Sweet Redemption
TTITLE6=Sleep on my Shoulder
TTITLE7=Miss Ohio
TTITLE8=Canada
EXTD=
EXTT0=
EXTT1=
EXTT2=
EXTT3=
EXTT4=
EXTT5=
EXTT6=
EXTT7=
EXTT8=
PLAYORDER=
